<!-- Create a lotus-large.svg file with this content -->
<svg xmlns="http://www.w3.org/2000/svg" viewBox="0 0 100 100">
  <g fill="#000">
    <circle cx="50" cy="50" r="5"/>
    <path d="M50 30c-11.05 0-20 8.95-20 20s8.95 20 20 20 20-8.95 20-20-8.95-20-20-20zm0 36c-8.84 0-16-7.16-16-16s7.16-16 16-16 16 7.16 16 16-7.16 16-16 16z"/>
    <path d="M32.9 32.9c-3.91 3.91-6.34 9.32-6.34 15.3 0 1.03.07 2.04.21 3.03 2.95-12.94 16.8-20.8 29.89-17.5-7.68-7.68-20.13-7.68-27.81 0zM67.1 32.9c3.91 3.91 6.34 9.32 6.34 15.3 0 1.03-.07 2.04-.21 3.03-2.95-12.94-16.8-20.8-29.89-17.5 7.68-7.68 20.13-7.68 27.81 0zM32.9 67.1c-3.91-3.91-6.34-9.32-6.34-15.3 0-1.03.07-2.04.21-3.03 2.95 12.94 16.8 20.8 29.89 17.5-7.68 7.68-20.13 7.68-27.81 0zM67.1 67.1c3.91-3.91 6.34-9.32 6.34-15.3 0-1.03-.07-2.04-.21-3.03-2.95 12.94-16.8 20.8-29.89 17.5 7.68 7.68 20.13 7.68 27.81 0z"/>
  </g>
</svg>