<!-- Create a lotus.svg file with this content -->
<svg xmlns="http://www.w3.org/2000/svg" viewBox="0 0 100 100">
  <path d="M50,20c-1.1,0-2-0.9-2-2c0-1.1,0.9-2,2-2s2,0.9,2,2C52,19.1,51.1,20,50,20z" fill="#8A2BE2"/>
  <path d="M50,75c-14.9,0-27-12.1-27-27c0-14.9,12.1-27,27-27s27,12.1,27,27C77,62.9,64.9,75,50,75z M50,25
    c-12.7,0-23,10.3-23,23c0,12.7,10.3,23,23,23s23-10.3,23-23C73,35.3,62.7,25,50,25z" fill="#8A2BE2"/>
  <path d="M50,68.5c-7.7-7.7-7.7-20.2,0-27.9c7.7-7.7,20.2-7.7,27.9,0" fill="none" stroke="#8A2BE2" stroke-width="4"/>
  <path d="M50,68.5c-7.7-7.7-7.7-20.2,0-27.9c-7.7-7.7-20.2-7.7-27.9,0" fill="none" stroke="#8A2BE2" stroke-width="4"/>
  <path d="M50,38.5c7.7-7.7,20.2-7.7,27.9,0c7.7,7.7,7.7,20.2,0,27.9" fill="none" stroke="#8A2BE2" stroke-width="4"/>
  <path d="M50,38.5c-7.7-7.7-20.2-7.7-27.9,0c-7.7,7.7-7.7,20.2,0,27.9" fill="none" stroke="#8A2BE2" stroke-width="4"/>
</svg>
